<?xml version="1.0" standalone="no"?><!DOCTYPE svg PUBLIC "-//W3C//DTD SVG 1.1//EN" "http://www.w3.org/Graphics/SVG/1.1/DTD/svg11.dtd"><svg t="1525771925340" class="icon" style="" viewBox="0 0 1024 1024" version="1.1" xmlns="http://www.w3.org/2000/svg" p-id="1934" xmlns:xlink="http://www.w3.org/1999/xlink" width="200" height="200"><defs><style type="text/css"></style></defs><path d="M64.3 62.6v895h895v-895h-895z m447.5 753c-112.3 0-204.3-86.9-212.5-197.1-0.4-2-0.6-4-0.6-6V241.1c0-20.2 19.2-36.5 42.8-36.5 23.6 0 42.8 16.3 42.8 36.5v190.7c35.5-26.6 79.6-42.3 127.4-42.3 117.7 0 213.1 95.4 213.1 213s-95.3 213.1-213 213.1z" fill="#8590A6" p-id="1935"></path><path d="M511.8 462.7c-56.6 0-105.4 33.6-127.4 82-8 17.6-12.5 37.2-12.5 57.8 0 10.8 1.2 21.6 3.7 32.1 14.5 61.8 70 107.8 136.2 107.8 77.3 0 139.9-62.6 139.9-139.9 0-77.2-62.6-139.8-139.9-139.8z" fill="#8590A6" p-id="1936"></path></svg>