<?xml version="1.0" standalone="no"?><!DOCTYPE svg PUBLIC "-//W3C//DTD SVG 1.1//EN" "http://www.w3.org/Graphics/SVG/1.1/DTD/svg11.dtd"><svg t="1533617417155" class="icon" style="" viewBox="0 0 1024 1024" version="1.1" xmlns="http://www.w3.org/2000/svg" p-id="2084" xmlns:xlink="http://www.w3.org/1999/xlink" width="132" height="132"><defs><style type="text/css"></style></defs><path d="M774.4 134.4h-38.4v-38.4c0-19.2-19.2-38.4-38.4-38.4s-38.4 19.2-38.4 38.4v38.4H550.4v-38.4c0-19.2-19.2-32-38.4-32s-38.4 12.8-38.4 32v38.4H364.8v-38.4c0-19.2-19.2-32-38.4-32s-38.4 12.8-38.4 32v38.4h-38.4C147.2 134.4 64 217.6 64 320v448c0 51.2 19.2 96 51.2 134.4 32 32 83.2 57.6 134.4 57.6h524.8c102.4 0 185.6-83.2 185.6-185.6V320c0-102.4-83.2-185.6-185.6-185.6z m108.8 633.6c0 64-51.2 108.8-108.8 108.8H249.6c-32 0-57.6-12.8-76.8-32-19.2-19.2-32-51.2-32-76.8V435.2h742.4V768z m0-409.6H140.8V320C140.8 256 192 211.2 256 211.2h38.4v38.4c0 19.2 19.2 38.4 38.4 38.4s38.4-19.2 38.4-38.4v-38.4h108.8v38.4c0 19.2 19.2 38.4 38.4 38.4s38.4-19.2 38.4-38.4v-38.4h108.8v38.4c0 19.2 19.2 38.4 38.4 38.4s38.4-19.2 38.4-38.4v-38.4h38.4c64 0 108.8 51.2 108.8 108.8l-6.4 38.4z" fill="#8590A6" p-id="2085"></path><path d="M448 793.6c6.4 6.4 19.2 12.8 25.6 12.8 12.8 0 19.2-6.4 25.6-12.8l224-224c12.8-12.8 12.8-38.4 0-51.2-12.8-12.8-38.4-12.8-51.2 0l-198.4 198.4-83.2-83.2c-12.8-12.8-38.4-12.8-51.2 0-12.8 12.8-12.8 38.4 0 51.2L448 793.6z" fill="#8590A6" p-id="2086"></path></svg>