<?xml version="1.0" standalone="no"?><!DOCTYPE svg PUBLIC "-//W3C//DTD SVG 1.1//EN" "http://www.w3.org/Graphics/SVG/1.1/DTD/svg11.dtd"><svg t="1531801101459" class="icon" style="" viewBox="0 0 1024 1024" version="1.1" xmlns="http://www.w3.org/2000/svg" p-id="17086" xmlns:xlink="http://www.w3.org/1999/xlink" width="200" height="200"><defs><style type="text/css"></style></defs><path d="M960.001014 319.980737v607.999493c0 17.691881-14.327889 32.000507-32.001521 32.000507H96.000507c-17.711145 0-31.998479-14.308626-31.998479-32.000507V319.979723H0v640.001014C0 995.307723 28.672 1024 64.001014 1024h896c35.325972 0 63.998986-28.692277 63.998986-64.019263v-640h-63.998986zM192 832h128c17.672618 0 31.999493-14.325861 31.999493-32.018756v-95.981244c0-17.692895-14.325861-32.000507-31.999493-32.000507h-128c-17.712158 0-32.000507 14.307612-32.000507 32.000507v95.981244c0 17.691881 14.289362 32.018756 32.000507 32.018756m0-224.000507h128c17.672618 0 31.999493-14.325861 31.999493-32.01977v-95.999493c0-17.671604-14.325861-31.999493-31.999493-31.999493h-128c-17.712158 0-32.000507 14.326875-32.000507 32.000507v95.999493c0 17.691881 14.289362 32.01977 32.000507 32.01977m256 223.999493h128c17.673632 0 32.000507-14.325861 32.000507-32.018756v-95.981244c0-17.692895-14.326875-32.000507-32.000507-32.000507h-128c-17.712158 0-32.000507 14.307612-32.000507 32.000507v95.981244c0 17.691881 14.289362 32.018756 32.000507 32.018756m0-224.000507h128c17.673632 0 32.000507-14.325861 32.000507-32.01977v-95.999493c0-17.671604-14.326875-31.999493-32.000507-31.999493h-128c-17.712158 0-32.000507 14.326875-32.000507 32.000507v95.999493c0 17.691881 14.289362 32.01977 32.000507 32.01977m256 223.999493h128c17.673632 0 32.000507-14.325861 32.000507-32.018756v-95.981244c0-17.692895-14.326875-32.000507-32.000507-32.000507h-128c-17.673632 0-32.000507 14.307612-32.000507 32.000507v95.981244c0 17.691881 14.326875 32.018756 32.000507 32.018756m0-224.000507h128c17.673632 0 32.000507-14.325861 32.000507-32.01977v-95.999493c0-17.671604-14.326875-31.999493-32.000507-31.999493h-128c-17.673632 0-32.000507 14.326875-32.000507 32.000507v95.999493c0 17.691881 14.326875 32.01977 32.000507 32.01977" fill="#CCCCCC" p-id="17087"></path><path d="M1024 161.596325v158.403675H0V161.596325c0-35.34625 28.672-64.020277 64.001014-64.020277h17.326891v55.750209c0 40.712618 33.114741 73.846622 73.788832 73.846622 40.76838 0 73.884135-33.134004 73.884134-73.846622V97.577061h90.248872v55.75021c0 40.712618 33.135018 73.846622 73.865885 73.846622 40.673077 0 73.769568-33.134004 73.769568-73.846622V97.577061h90.288412v55.75021c0 40.712618 33.115754 73.846622 73.826344 73.846622 40.692341 0 73.788832-33.134004 73.788832-73.846622V97.577061h90.288412v55.75021c0 40.712618 33.135018 73.846622 73.846622 73.846622 40.673077 0 73.786804-33.134004 73.786804-73.846622V97.577061H960.001014c35.325972 0 63.998986 28.674028 63.998986 64.020278z m-910.673616-8.269054V41.826851C113.326384 18.731089 132.03821 0 155.115723 0c23.134289 0 41.884642 18.730075 41.884641 41.826851V153.326257c0 23.115026-18.750352 41.846115-41.884641 41.846115-23.077513 0-41.789339-18.731089-41.789339-41.846115z m713.750305 0V41.826851C827.077703 18.731089 845.789529 0 868.923818 0c23.115026 0 41.788325 18.730075 41.788325 41.826851V153.326257c0 23.115026-18.673299 41.846115-41.788325 41.846115-23.134289 0-41.846115-18.731089-41.846115-41.846115z m-475.825426 0V41.826851C351.25025 18.731089 369.998574 0 393.114614 0c23.057236 0 41.769061 18.730075 41.769061 41.826851V153.326257c0 23.115026-18.711826 41.846115-41.769061 41.846115-23.11604 0-41.865378-18.731089-41.865378-41.846115z m237.920824 0V41.826851C589.172087 18.731089 607.92244 0 630.999952 0c23.11604 0 41.788325 18.730075 41.788325 41.826851V153.326257c0 23.115026-18.672285 41.846115-41.788325 41.846115-23.077513 0-41.827865-18.731089-41.827865-41.846115z" fill="#ED7261" p-id="17088"></path></svg>