<?xml version="1.0" standalone="no"?><!DOCTYPE svg PUBLIC "-//W3C//DTD SVG 1.1//EN" "http://www.w3.org/Graphics/SVG/1.1/DTD/svg11.dtd"><svg t="1533969611488" class="icon" style="" viewBox="0 0 1024 1024" version="1.1" xmlns="http://www.w3.org/2000/svg" p-id="24677" xmlns:xlink="http://www.w3.org/1999/xlink" width="132" height="132"><defs><style type="text/css"></style></defs><path d="M981.655704 540.842667c1.175704-8.817778-1.289481-17.957926-8.305778-24.481185L592.971852 162.152296c-0.568889-0.530963-1.156741-1.024-1.763556-1.517037L588.98963 158.890667c-44.999111-35.593481-87.514074-69.176889-160.237037-13.217185-0.986074 0.777481-1.934222 1.592889-2.806519 2.484148L49.834667 526.317037c-2.446222 2.465185-4.190815 5.385481-5.575111 8.438519-0.417185 0.948148-0.70163 1.877333-1.005037 2.825481-0.758519 2.294519-1.194667 4.608-1.34637 7.016296-0.056889 0.986074-0.18963 1.915259-0.132741 2.901333 0.113778 3.090963 0.644741 6.162963 1.801481 9.140148 0.056889 0.18963 0.056889 0.379259 0.132741 0.530963 0 0.037926 0 0.056889 0.018963 0.094815 1.327407 3.204741 3.337481 5.935407 5.632 8.362667 0.246519 0.265481 0.32237 0.606815 0.587852 0.872296 0.417185 0.417185 1.005037 0.568889 1.460148 0.967111 1.953185 1.72563 4.077037 3.109926 6.428444 4.247704 0.853333 0.398222 1.630815 0.891259 2.522074 1.194667 3.072 1.118815 6.276741 1.877333 9.652148 1.877333l89.770667 0 0 194.066963c0 76.686222 62.388148 139.07437 139.07437 139.07437l105.718519 0c14.279111 0 25.998222-10.581333 28.027259-24.272593 1.953185-3.849481 3.147852-8.154074 3.147852-12.762074l0-181.020444c0-33.810963 34.209185-61.307259 76.250074-61.307259 42.059852 0 76.250074 27.496296 76.250074 61.307259l0 181.020444c0 1.460148 0.227556 2.88237 0.417185 4.304593-0.208593 1.403259-0.417185 2.825481-0.417185 4.304593 0 15.701333 12.743111 28.444444 28.444444 28.444444l112.374519 0c76.686222 0 139.07437-62.388148 139.07437-139.07437L868.143407 578.578963c0-1.270519-0.246519-2.522074-0.398222-3.754667l86.262519 0c12.041481 0 22.755556-7.566222 26.794667-18.906074C982.546963 550.949926 982.641778 545.754074 981.655704 540.842667z" p-id="24678" data-spm-anchor-id="a313x.7781069.0.i3" class="" fill="#8590A6"></path></svg>