<?xml version="1.0" standalone="no"?><!DOCTYPE svg PUBLIC "-//W3C//DTD SVG 1.1//EN" "http://www.w3.org/Graphics/SVG/1.1/DTD/svg11.dtd"><svg t="1531800955269" class="icon" style="" viewBox="0 0 1024 1024" version="1.1" xmlns="http://www.w3.org/2000/svg" p-id="16265" xmlns:xlink="http://www.w3.org/1999/xlink" width="200" height="200"><defs><style type="text/css"></style></defs><path d="M830.464 512C770.048 397.824 650.24 319.488 512 319.488c-52.224 0-101.888 11.264-146.432 31.232C409.088 377.344 450.56 408.576 487.424 445.44c9.728-5.632 20.992-8.704 32.768-8.704 36.864 0 67.072 30.208 67.072 67.072 0 15.36-5.12 29.696-13.824 40.96 30.208 41.472 54.272 86.528 73.728 133.632 78.848-32.256 143.872-91.648 183.296-166.4z" fill="#FF9500" p-id="16266"></path><path d="M512 716.8c-69.12 0-136.704-18.944-195.072-55.296-56.832-35.328-103.424-84.992-134.656-143.872L179.2 512l3.072-5.632c31.232-58.88 77.824-109.056 134.656-143.872C375.296 326.144 442.88 307.2 512 307.2s136.704 18.944 195.072 55.296c56.832 35.328 103.424 84.992 134.656 143.872l3.072 5.632-3.072 5.632c-31.232 58.88-77.824 109.056-134.656 143.872-58.368 36.352-125.952 55.296-195.072 55.296z m-304.128-204.8c61.44 111.104 177.152 180.224 304.128 180.224s243.2-68.608 304.128-180.224c-61.44-111.104-177.152-180.224-304.128-180.224S268.8 400.896 207.872 512z" fill="" p-id="16267"></path><path d="M512 721.92c-70.144 0-138.24-19.456-197.632-55.808-57.344-35.84-104.448-86.016-136.192-145.92l-4.608-8.192 4.608-8.192C209.92 443.904 257.024 393.216 314.368 357.888 373.76 321.536 441.856 302.08 512 302.08s138.24 19.456 197.632 55.808c57.344 35.84 104.448 86.016 136.192 145.92l4.608 8.192-4.608 8.192c-31.744 59.904-78.848 110.592-136.192 145.92C650.24 702.976 582.144 721.92 512 721.92z m-326.656-209.92l2.048 3.584c30.72 58.368 76.8 107.52 132.608 141.824 57.856 35.84 124.416 54.272 192.512 54.272s134.656-18.944 192.512-54.272a368.0256 368.0256 0 0 0 132.608-141.824l2.048-3.584-2.048-3.584c-30.72-58.368-76.8-107.52-132.608-141.824C646.656 331.264 580.096 312.32 512 312.32s-134.656 18.944-192.512 54.272C263.68 401.408 217.6 450.56 186.88 508.928l-1.536 3.072z m326.656 185.344c-128.512 0-246.784-70.144-308.736-182.784l-1.536-2.56 1.536-2.56c61.952-112.64 180.224-182.784 308.736-182.784s246.784 70.144 308.736 182.784l1.536 2.56-1.536 2.56c-61.952 112.64-180.224 182.784-308.736 182.784zM213.504 512c60.416 108.032 174.592 175.104 298.496 175.104s237.568-67.072 298.496-175.104c-60.416-108.032-174.592-175.104-298.496-175.104S274.432 403.968 213.504 512z" fill="" p-id="16268"></path><path d="M520.192 583.168c-44.032 0-79.36-35.84-79.36-79.36s35.84-79.36 79.36-79.36 79.36 35.84 79.36 79.36-35.328 79.36-79.36 79.36z m0-134.144c-30.208 0-54.272 24.576-54.272 54.272s24.576 54.272 54.272 54.272 54.272-24.576 54.272-54.272-24.064-54.272-54.272-54.272z" fill="" p-id="16269"></path><path d="M520.192 588.288c-46.592 0-84.48-37.888-84.48-84.48s37.888-84.48 84.48-84.48 84.48 37.888 84.48 84.48-37.888 84.48-84.48 84.48z m0-158.72c-40.96 0-74.24 33.28-74.24 74.24s33.28 74.24 74.24 74.24 74.24-33.28 74.24-74.24-33.28-74.24-74.24-74.24z m0 133.632c-32.768 0-59.392-26.624-59.392-59.392s26.624-59.392 59.392-59.392 59.392 26.624 59.392 59.392-26.112 59.392-59.392 59.392z m0-109.056c-27.136 0-49.152 22.016-49.152 49.152s22.016 49.152 49.152 49.152 49.152-22.016 49.152-49.152c0.512-26.624-22.016-49.152-49.152-49.152z" fill="" p-id="16270"></path></svg>