<?xml version="1.0" standalone="no"?><!DOCTYPE svg PUBLIC "-//W3C//DTD SVG 1.1//EN" "http://www.w3.org/Graphics/SVG/1.1/DTD/svg11.dtd"><svg t="1533617449300" class="icon" style="" viewBox="0 0 1490 1024" version="1.1" xmlns="http://www.w3.org/2000/svg" p-id="2862" xmlns:xlink="http://www.w3.org/1999/xlink" width="192.0703125" height="132"><defs><style type="text/css"></style></defs><path d="M1468.691325 455.832769l-22.281032-40.848558a841.108938 841.108938 0 0 0-106.763275-148.54021A827.183294 827.183294 0 0 0 1206.889205 146.683457a811.400896 811.400896 0 0 0-75.198481-47.347192 797.475252 797.475252 0 0 0-79.840363-38.991805 782.621231 782.621231 0 0 0-83.553868-29.708042A768.695586 768.695586 0 0 0 881.957496 11.140516a759.411823 759.411823 0 0 0-92.837631-10.21214H692.568728a759.411823 759.411823 0 0 0-92.837631 10.21214 768.695586 768.695586 0 0 0-86.338997 20.424279 782.621231 782.621231 0 0 0-83.553868 29.708042 797.475252 797.475252 0 0 0-79.840363 38.991805 811.400896 811.400896 0 0 0-71.484976 46.418815 827.183294 827.183294 0 0 0-132.757812 119.760544A841.108938 841.108938 0 0 0 38.063429 414.055835l-22.281032 40.848558a104.906523 104.906523 0 0 0-15.782397 50.13232 156.895597 156.895597 0 0 0 21.352655 60.344461A854.106207 854.106207 0 0 0 66.843094 649.863418a844.822443 844.822443 0 0 0 52.91745 73.341729 835.53868 835.53868 0 0 0 60.34446 66.843094 825.326541 825.326541 0 0 0 65.914719 59.416084 815.114402 815.114402 0 0 0 71.484976 51.060697 802.117133 802.117133 0 0 0 77.055233 42.705311 788.191488 788.191488 0 0 0 80.76874 34.349923 776.122596 776.122596 0 0 0 84.482244 25.06616 764.982081 764.982081 0 0 0 87.267373 15.782398 760.340199 760.340199 0 0 0 92.837631 5.570258h13.925645a760.340199 760.340199 0 0 0 92.837631-5.570258 764.982081 764.982081 0 0 0 87.267373-15.782398 776.122596 776.122596 0 0 0 84.482245-25.06616 788.191488 788.191488 0 0 0 80.768739-34.349923 802.117133 802.117133 0 0 0 77.055234-42.705311 815.114402 815.114402 0 0 0 71.484976-51.060697 825.326541 825.326541 0 0 0 65.914718-59.416084 835.53868 835.53868 0 0 0 60.34446-66.843094 844.822443 844.822443 0 0 0 44.562063-73.341729 854.106207 854.106207 0 0 0 45.490439-80.768739 156.895597 156.895597 0 0 0 21.352655-64.057966 104.906523 104.906523 0 0 0-16.710773-49.203944zM749.199683 894.026388h-12.997268a679.57146 679.57146 0 0 1-602.516226-388.061298 671.216073 671.216073 0 0 1 597.874344-379.705912h22.281032a671.216073 671.216073 0 0 1 597.874345 379.705912 679.57146 679.57146 0 0 1-602.516227 388.061298z" fill="#8590A6" p-id="2863"></path><path d="M947.872214 505.036713A205.171165 205.171165 0 0 0 742.701049 299.865549a205.171165 205.171165 0 0 0 0 410.342329 205.171165 205.171165 0 0 0 205.171165-205.171165zM742.701049 583.9487a78.911986 78.911986 0 0 1 0-157.823973 78.911986 78.911986 0 0 1 0 157.823973z" fill="#8590A6" p-id="2864"></path></svg>